<?xml version="1.0" standalone="no"?>
<!DOCTYPE svg PUBLIC "-//W3C//DTD SVG 20010904//EN"
 "http://www.w3.org/TR/2001/REC-SVG-20010904/DTD/svg10.dtd">
<svg version="1.0" xmlns="http://www.w3.org/2000/svg"
 width="512.000000pt" height="512.000000pt" viewBox="0 0 512.000000 512.000000"
 preserveAspectRatio="xMidYMid meet">
<metadata>
Created by potrace 1.11, written by Peter Selinger 2001-2013
</metadata>
<g transform="translate(0.000000,512.000000) scale(0.100000,-0.100000)"
fill="#000000" stroke="none">
<path d="M340 2566 c0 -2010 1 -2214 16 -2220 9 -3 1008 -6 2220 -6 l2204 0 0
2220 0 2220 -2220 0 -2220 0 0 -2214z m3688 1088 l2 -192 -108 -3 c-166 -6
-192 -34 -192 -208 l0 -101 160 0 160 0 0 -170 0 -170 -160 0 -160 0 0 -735 0
-735 -250 0 -250 0 0 735 0 735 -135 0 -135 0 0 170 0 170 134 0 133 0 6 163
c7 234 42 337 143 426 92 81 220 110 474 108 l175 -2 3 -191z m-1851 -439
c252 -48 425 -160 554 -359 117 -179 154 -347 150 -673 l-1 -53 -666 0 -665 0
6 -47 c24 -174 83 -283 189 -350 120 -76 311 -89 441 -29 56 26 121 86 150
140 l20 36 252 0 c142 0 253 -4 253 -9 0 -36 -49 -153 -90 -215 -78 -116 -192
-216 -313 -276 -146 -72 -229 -91 -423 -97 -214 -7 -348 19 -509 100 -264 132
-403 326 -452 632 -24 152 -14 426 21 560 88 341 328 572 666 640 91 18 320
18 417 0z"/>
<path d="M1893 2819 c-169 -22 -278 -133 -322 -331 l-9 -38 405 0 406 0 -7 53
c-28 216 -227 348 -473 316z"/>
</g>
</svg>
